<svg width="16" height="16" viewBox="0 0 16 16" fill="none" xmlns="http://www.w3.org/2000/svg">
  <path fill-rule="evenodd" clip-rule="evenodd" d="M8.97226 2.55211L14.8303 12.6971C15.2273 13.3841 14.9023 13.9461 14.1083 13.9461H2.79826C2.32073 13.946 1.87948 13.6913 1.64065 13.2778C1.40182 12.8643 1.40167 12.3548 1.64026 11.9411L7.06226 2.55111C7.25935 2.21006 7.62336 2 8.01726 2C8.41116 2 8.77517 2.21106 8.97226 2.55211ZM9.09826 11.4241C9.09826 10.9869 8.83488 10.5927 8.43094 10.4254C8.027 10.2581 7.56204 10.3506 7.25288 10.6597C6.94372 10.9689 6.85123 11.4338 7.01855 11.8378C7.18587 12.2417 7.58004 12.5051 8.01726 12.5051C8.61428 12.5051 9.09826 12.0211 9.09826 11.4241ZM7.00026 5.94711L8.74426 5.29711V8.90111H7.30326L7.00026 5.94711Z" fill="#27282C" fill-opacity="0.5"/>
</svg>
