<svg xmlns="http://www.w3.org/2000/svg" width="16" height="16" viewBox="0 0 16 16">
  <title>icons_all_sprite</title>
  <g id="Layer_4" data-name="Layer 4">
    <g>
      <circle cx="8" cy="8" r="6" fill="#e05219" opacity="0.9" style="isolation: isolate"/>
      <path d="M8.99609,4.98828V6.48193a.4905.4905,0,0,1-.00976.09619L8.28174,9H7.71045L7.00586,6.57812A.44233.44233,0,0,1,7,6.521V5c0-.26465,0-.99023.47559-.99023h1.041C9,4.00977,8.99609,4.72363,8.99609,4.98828Zm-.10547,5.9329L8.42627,10.31a.47056.47056,0,0,0-.37354-.18943H7.94092a.47078.47078,0,0,0-.374.18943l-.46435.61117A.52557.52557,0,0,0,7,11.22882v.28184A.49088.49088,0,0,0,7.47607,12h1.041a.49312.49312,0,0,0,.479-.50638l.00049-.25447A.52333.52333,0,0,0,8.89062,10.92118Z" fill="#fff"/>
    </g>
  </g>
</svg>
